#!OML:ASF H:\Terrain\Patient Classification 1\Takeo\Monday\TakeoMonday.ASF
:FULLY-SPECIFIED
:DEGREES
1886
root 8.63481 17.585 0.131665 -9.89978 41.7815 -9.28382
lowerback 14.0754 2.3755 4.24078
upperback 3.98113 3.60981 -6.10696
thorax -2.97835 1.88458 -9.54425
lowerneck -10.6666 -9.47348 -4.17611
upperneck -17.4645 -11.3205 5.95092
head -3.3091 -5.31429 2.55937
rclavicle 1.66979e-014 -3.18055e-015
rhumerus 73.1065 -14.3639 -33.5222
rradius 49.514
rwrist -9.8968
rhand -39.9381 40.7014
rfingers 7.12502
rthumb -12.9081 11.1206
lclavicle 1.66979e-014 -3.18055e-015
lhumerus -28.6723 3.08466 77.2058
lradius 40.675
lwrist 30.5804
lhand -30.9913 14.1288
lfingers 7.12502
lthumb -4.27472 44.0656
rfemur -6.58924 -18.1887 23.7549
rtibia 25.0885
rfoot -16.1781 -24.3844
rtoes 8.58143
lfemur -8.94733 -9.43841 -12.5771
ltibia 33.7818
lfoot -17.8178 6.62355
ltoes -4.62961
1887
root 8.64261 17.6115 0.163297 -9.82187 42.0638 -9.34818
lowerback 13.8724 2.4257 4.178
upperback 3.58874 3.64264 -6.27218
thorax -3.27159 1.8738 -9.70033
lowerneck -11.1746 -9.4086 -9.16737
upperneck -15.8772 -10.3924 11.1618
head -1.83638 -4.74282 4.63146
rclavicle 2.98177e-014 -1.27222e-014
rhumerus 72.9767 -15.108 -33.3192
rradius 48.7674
rwrist -10.0235
rhand -40.5513 38.9414
rfingers 7.12502
rthumb -13.4992 9.39894
lclavicle 2.98177e-014 -1.27222e-014
lhumerus -29.0749 2.68769 77.0935
lradius 40.6657
lwrist 30.9888
lhand -30.3945 14.0122
lfingers 7.12502
lthumb -3.69842 43.9599
rfemur -6.06445 -18.0975 23.8294
rtibia 24.0705
rfoot -16.2848 -24.6079
rtoes 9.35571
lfemur -8.67077 -9.89671 -12.5228
ltibia 33.1393
lfoot -17.4447 6.71713
ltoes -5.53537
1888
root 8.65481 17.6424 0.196569 -9.89727 42.3227 -9.45605
lowerback 13.7735 2.46078 4.20165
upperback 3.30072 3.67458 -6.42193
thorax -3.50548 1.86912 -9.89397
lowerneck -9.36051 -9.64674 -6.25854
upperneck -18.2312 -11.1796 8.55912
head -3.10413 -5.23797 3.54524
rclavicle 1.59028e-014 2.54444e-014
rhumerus 72.9405 -15.9466 -32.8317
rradius 47.9555
rwrist -10.4374
rhand -39.9787 40.1176
rfingers 7.12502
rthumb -12.9473 10.5393
lclavicle 1.59028e-014 2.54444e-014
lhumerus -29.2769 2.42102 76.9796
lradius 40.4998
lwrist 31.0804
lhand -30.1651 14.1155
lfingers 7.12502
lthumb -3.47693 44.0669
rfemur -5.4161 -17.9991 23.8878
rtibia 23.0342
rfoot -16.1977 -24.9768
rtoes 9.95879
lfemur -8.25781 -10.3679 -12.484
ltibia 32.5169
lfoot -16.9686 6.96041
ltoes -6.03756
1889
root 8.67187 17.6711 0.230546 -10.2998 42.528 -9.8962
lowerback 13.6864 2.46123 4.43462
upperback 3.05745 3.69479 -6.45666
thorax -3.69462 1.85928 -10.0801
lowerneck -8.4245 -9.76458 -5.57622
upperneck -19.3224 -11.465 7.85318
head -3.65234 -5.39367 3.31302
rclavicle -1.39149e-014 -2.22639e-014
rhumerus 72.8799 -16.7035 -32.1899
rradius 47.3428
rwrist -10.8786
rhand -39.4761 41.7463
rfingers 7.12502
rthumb -12.4627 12.1378
lclavicle -1.39149e-014 -2.22639e-014
lhumerus -29.4378 2.48807 76.7946
lradius 40.2474
lwrist 30.9114
lhand -30.0051 14.093
lfingers 7.12502
lthumb -3.32238 44.0469
rfemur -4.64953 -17.9078 24.176
rtibia 22.106
rfoot -16.3184 -25.2735
rtoes 10.1492
lfemur -7.72346 -10.8014 -12.1883
ltibia 31.8668
lfoot -16.7769 7.15323
ltoes -4.63986
1890
root 8.68325 17.6902 0.261841 -10.3959 42.7201 -10.1064
lowerback 13.4711 2.49839 4.41351
upperback 2.79218 3.72237 -6.60436
thorax -3.84475 1.85631 -10.2346
lowerneck -7.83944 -9.76332 -5.6622
upperneck -19.8643 -11.4363 8.12612
head -3.88406 -5.38643 3.45814
rclavicle 2.98177e-014 -3.18055e-014
rhumerus 73.0182 -17.4223 -32.1437
rradius 46.5563
rwrist -10.951
rhand -39.7422 41.0839
rfingers 7.12502
rthumb -12.7193 11.4913
lclavicle 2.98177e-014 -3.18055e-014
lhumerus -29.524 2.79428 76.3763
lradius 39.9748
lwrist 30.6014
lhand -29.5486 14.0734
lfingers 7.12502
lthumb -2.88148 44.0337
rfemur -4.13262 -17.8094 24.3551
rtibia 21.2231
rfoot -16.1481 -25.5534
rtoes 9.41942
lfemur -7.38981 -11.0404 -12.0144
ltibia 31.2249
lfoot -16.6887 7.19859
ltoes -4.7813
1891
root 8.68881 17.7027 0.290933 -10.034 42.918 -9.84318
lowerback 13.1599 2.58512 3.98047
upperback 2.54286 3.75706 -6.82855
thorax -3.94614 1.86466 -10.2227
lowerneck -7.37325 -9.79124 -5.49426
upperneck -20.4717 -11.4701 8.17677
head -4.14675 -5.41267 3.49536
rclavicle 1.98785e-014 2.8625e-014
rhumerus 73.2471 -18.1929 -32.1646
rradius 45.7685
rwrist -10.976
rhand -40.185 37.9868
rfingers 7.12502
rthumb -13.1461 8.42126
lclavicle 1.98785e-014 2.8625e-014
lhumerus -29.5637 2.89963 76.0601
lradius 39.7971
lwrist 30.37
lhand -29.0464 14.1393
lfingers 7.12502
lthumb -2.39652 44.1055
rfemur -3.88599 -17.6481 24.2318
rtibia 20.3842
rfoot -15.6327 -26.0161
rtoes 8.03679
lfemur -7.27105 -11.0783 -12.1686
ltibia 30.651
lfoot -16.4423 7.07505
ltoes -5.44435
